<svg xmlns="http://www.w3.org/2000/svg" version="1.1" xmlns:xlink="http://www.w3.org/1999/xlink" xmlns:svgjs="http://svgjs.dev/svgjs" width="2000" height="1500" viewBox="0 0 2000 1500"><rect width="2000" height="1500" fill="#ffffff"></rect><g transform="matrix(0.75,0,0,0.75,249.090909090909,282.7536437246963)"><svg viewBox="0 0 396 247" data-background-color="#ffffff" preserveAspectRatio="xMidYMid meet" height="1247" width="2000" xmlns="http://www.w3.org/2000/svg" xmlns:xlink="http://www.w3.org/1999/xlink"><defs></defs><g id="tight-bounds" transform="matrix(1,0,0,1,0.2400000000000091,-0.09999999999999432)"><svg viewBox="0 0 395.52 247.2" height="247.2" width="395.52"><g><svg></svg></g><g><svg viewBox="0 0 395.52 247.2" height="247.2" width="395.52"><g><path d="M55.039 247.2l26.403-45.732 232.636 0 26.403 45.732zM197.76 0l26.403 45.732-52.806 0z" fill="#ffffff" data-fill-palette-color="tertiary"></path></g><g transform="matrix(1,0,0,1,77.50650510266316,67.97999999999999)"><svg viewBox="0 0 240.50698979467367 111.24" height="111.24" width="240.50698979467367"><g><svg viewBox="0 0 440.24778804483975 203.62470123599104" height="111.24" width="240.50698979467367"><g transform="matrix(1,0,0,1,124.03918599253205,28.142053499330174)"><svg viewBox="0 0 316.2086020523077 147.3405942373307" height="147.3405942373307" width="316.2086020523077"><g><svg viewBox="0 0 316.2086020523077 147.3405942373307" height="147.3405942373307" width="316.2086020523077"><g><svg viewBox="0 0 316.2086020523077 110.5525368" height="110.5525368" width="316.2086020523077"><g transform="matrix(1,0,0,1,0,0)"><svg width="316.2086020523077" viewBox="113.55000000000001 -35.5 223.09999999999997 75" height="110.5525368" data-palette-color="#f1d00a"><svg></svg><svg></svg><g class="undefined-text-0" data-fill-palette-color="primary" id="text-0"><path d="M131.93 0.5v0c-2.533 0-4.9-0.467-7.1-1.4-2.2-0.933-4.133-2.227-5.8-3.88-1.667-1.647-2.973-3.553-3.92-5.72-0.953-2.167-1.43-4.5-1.43-7v0c0-2.5 0.477-4.833 1.43-7 0.947-2.167 2.253-4.077 3.92-5.73 1.667-1.647 3.6-2.937 5.8-3.87 2.2-0.933 4.567-1.4 7.1-1.4v0c1.567 0 3.083 0.167 4.55 0.5 1.467 0.333 2.817 0.833 4.05 1.5v0c0.5 0.267 0.877 0.623 1.13 1.07 0.247 0.453 0.37 0.913 0.37 1.38v0c0 0.8-0.267 1.517-0.8 2.15-0.533 0.633-1.217 0.95-2.05 0.95v0c-0.267 0-0.54-0.033-0.82-0.1-0.287-0.067-0.563-0.167-0.83-0.3v0c-0.833-0.367-1.717-0.65-2.65-0.85-0.933-0.2-1.917-0.3-2.95-0.3v0c-2.167 0-4.14 0.54-5.92 1.62-1.787 1.087-3.203 2.537-4.25 4.35-1.053 1.82-1.58 3.83-1.58 6.03v0c0 2.167 0.527 4.167 1.58 6 1.047 1.833 2.463 3.29 4.25 4.37 1.78 1.087 3.753 1.63 5.92 1.63v0c1 0 2.1-0.1 3.3-0.3 1.2-0.2 2.183-0.467 2.95-0.8v0l-0.45 1.5v-8.55l0.85 0.75h-5.55c-0.867 0-1.59-0.283-2.17-0.85-0.587-0.567-0.88-1.283-0.88-2.15v0c0-0.867 0.293-1.583 0.88-2.15 0.58-0.567 1.303-0.85 2.17-0.85v0h8.2c0.867 0 1.583 0.29 2.15 0.87 0.567 0.587 0.85 1.313 0.85 2.18v0 10.6c0 0.667-0.157 1.217-0.47 1.65-0.32 0.433-0.68 0.783-1.08 1.05v0c-1.533 0.933-3.207 1.673-5.02 2.22-1.82 0.553-3.73 0.83-5.73 0.83zM175.08-35.05v0c0.867 0 1.567 0.29 2.1 0.87 0.533 0.587 0.8 1.313 0.8 2.18v0 18.1c0 2.767-0.59 5.217-1.77 7.35-1.187 2.133-2.813 3.8-4.88 5-2.067 1.2-4.467 1.8-7.2 1.8v0c-2.733 0-5.14-0.6-7.22-1.8-2.087-1.2-3.72-2.867-4.9-5-1.187-2.133-1.78-4.583-1.78-7.35v0-18.1c0-0.867 0.3-1.593 0.9-2.18 0.6-0.58 1.367-0.87 2.3-0.87v0c0.767 0 1.46 0.29 2.08 0.87 0.613 0.587 0.92 1.313 0.92 2.18v0 18.1c0 1.667 0.36 3.107 1.08 4.32 0.713 1.22 1.663 2.163 2.85 2.83 1.18 0.667 2.437 1 3.77 1v0c1.433 0 2.767-0.333 4-1 1.233-0.667 2.233-1.61 3-2.83 0.767-1.213 1.15-2.653 1.15-4.32v0-18.1c0-0.867 0.25-1.593 0.75-2.18 0.5-0.58 1.183-0.87 2.05-0.87zM196.23 0.5v0c-2.333 0-4.433-0.293-6.3-0.88-1.867-0.58-3.65-1.603-5.35-3.07v0c-0.433-0.367-0.767-0.783-1-1.25-0.233-0.467-0.35-0.933-0.35-1.4v0c0-0.767 0.277-1.443 0.83-2.03 0.547-0.58 1.237-0.87 2.07-0.87v0c0.633 0 1.2 0.2 1.7 0.6v0c1.267 1.033 2.527 1.817 3.78 2.35 1.247 0.533 2.787 0.8 4.62 0.8v0c1.233 0 2.367-0.193 3.4-0.58 1.033-0.38 1.867-0.897 2.5-1.55 0.633-0.647 0.95-1.387 0.95-2.22v0c0-1-0.3-1.85-0.9-2.55-0.6-0.7-1.517-1.293-2.75-1.78-1.233-0.48-2.8-0.853-4.7-1.12v0c-1.8-0.267-3.383-0.677-4.75-1.23-1.367-0.547-2.507-1.247-3.42-2.1-0.92-0.847-1.613-1.847-2.08-3-0.467-1.147-0.7-2.437-0.7-3.87v0c0-2.167 0.56-4.017 1.68-5.55 1.113-1.533 2.62-2.7 4.52-3.5 1.9-0.8 4-1.2 6.3-1.2v0c2.167 0 4.177 0.327 6.03 0.98 1.847 0.647 3.353 1.47 4.52 2.47v0c0.967 0.767 1.45 1.65 1.45 2.65v0c0 0.733-0.283 1.4-0.85 2-0.567 0.6-1.233 0.9-2 0.9v0c-0.5 0-0.95-0.15-1.35-0.45v0c-0.533-0.467-1.25-0.91-2.15-1.33-0.9-0.413-1.85-0.763-2.85-1.05-1-0.28-1.933-0.42-2.8-0.42v0c-1.433 0-2.64 0.183-3.62 0.55-0.987 0.367-1.73 0.867-2.23 1.5-0.5 0.633-0.75 1.367-0.75 2.2v0c0 1 0.293 1.823 0.88 2.47 0.58 0.653 1.42 1.17 2.52 1.55 1.1 0.387 2.417 0.73 3.95 1.03v0c2 0.367 3.76 0.8 5.28 1.3 1.513 0.5 2.77 1.14 3.77 1.92 1 0.787 1.75 1.77 2.25 2.95 0.5 1.187 0.75 2.63 0.75 4.33v0c0 2.167-0.6 4.033-1.8 5.6-1.2 1.567-2.773 2.767-4.72 3.6-1.953 0.833-4.063 1.25-6.33 1.25zM226.68 0v0c-0.933 0-1.7-0.293-2.3-0.88-0.6-0.58-0.9-1.303-0.9-2.17v0-29h6.5v29c0 0.867-0.307 1.59-0.92 2.17-0.62 0.587-1.413 0.88-2.38 0.88zM237.83-29.25h-22.2c-0.867 0-1.59-0.267-2.17-0.8-0.587-0.533-0.88-1.233-0.88-2.1v0c0-0.867 0.293-1.56 0.88-2.08 0.58-0.513 1.303-0.77 2.17-0.77v0h22.2c0.867 0 1.593 0.267 2.18 0.8 0.58 0.533 0.87 1.233 0.87 2.1v0c0 0.867-0.29 1.557-0.87 2.07-0.587 0.52-1.313 0.78-2.18 0.78zM255.03-26.85l1.45-0.3-10.8 25.4c-0.233 0.633-0.59 1.123-1.07 1.47-0.487 0.353-1.013 0.53-1.58 0.53v0c-0.9 0-1.567-0.25-2-0.75-0.433-0.5-0.65-1.117-0.65-1.85v0c0-0.3 0.05-0.617 0.15-0.95v0l12.45-29.9c0.267-0.667 0.677-1.183 1.23-1.55 0.547-0.367 1.137-0.517 1.77-0.45v0c0.6 0 1.16 0.173 1.68 0.52 0.513 0.353 0.887 0.847 1.12 1.48v0l12.3 29.3c0.167 0.433 0.25 0.833 0.25 1.2v0c0 0.9-0.29 1.617-0.87 2.15-0.587 0.533-1.23 0.8-1.93 0.8v0c-0.6 0-1.14-0.183-1.62-0.55-0.487-0.367-0.863-0.867-1.13-1.5v0zM264.43-7.85h-17.2l2.75-5.75h13.5zM296.53-35.1v0c0.833 0 1.56 0.277 2.18 0.83 0.613 0.547 0.92 1.237 0.92 2.07v0c0 0.433-0.1 0.883-0.3 1.35v0l-12.35 28.9c-0.3 0.667-0.723 1.157-1.27 1.47-0.553 0.32-1.113 0.48-1.68 0.48v0c-0.533-0.033-1.05-0.21-1.55-0.53-0.5-0.313-0.883-0.77-1.15-1.37v0l-12.35-29c-0.1-0.2-0.167-0.41-0.2-0.63-0.033-0.213-0.05-0.42-0.05-0.62v0c0-0.967 0.35-1.71 1.05-2.23 0.7-0.513 1.367-0.77 2-0.77v0c1.267 0 2.183 0.65 2.75 1.95v0l10.95 25.75-1.75 0.05 10.05-25.8c0.567-1.267 1.483-1.9 2.75-1.9zM336.53-17.5v0c0 2.5-0.417 4.833-1.25 7-0.833 2.167-2.007 4.073-3.52 5.72-1.52 1.653-3.32 2.947-5.4 3.88-2.087 0.933-4.363 1.4-6.83 1.4v0c-2.467 0-4.733-0.467-6.8-1.4-2.067-0.933-3.857-2.227-5.37-3.88-1.52-1.647-2.697-3.553-3.53-5.72-0.833-2.167-1.25-4.5-1.25-7v0c0-2.5 0.417-4.833 1.25-7 0.833-2.167 2.01-4.077 3.53-5.73 1.513-1.647 3.303-2.937 5.37-3.87 2.067-0.933 4.333-1.4 6.8-1.4v0c2.467 0 4.743 0.467 6.83 1.4 2.08 0.933 3.88 2.223 5.4 3.87 1.513 1.653 2.687 3.563 3.52 5.73 0.833 2.167 1.25 4.5 1.25 7zM330.03-17.5v0c0-2.233-0.45-4.26-1.35-6.08-0.9-1.813-2.133-3.253-3.7-4.32-1.567-1.067-3.383-1.6-5.45-1.6v0c-2.067 0-3.883 0.533-5.45 1.6-1.567 1.067-2.79 2.5-3.67 4.3-0.887 1.8-1.33 3.833-1.33 6.1v0c0 2.233 0.443 4.257 1.33 6.07 0.88 1.82 2.103 3.263 3.67 4.33 1.567 1.067 3.383 1.6 5.45 1.6v0c2.067 0 3.883-0.533 5.45-1.6 1.567-1.067 2.8-2.51 3.7-4.33 0.9-1.813 1.35-3.837 1.35-6.07z" data-fill-palette-color="primary" fill="#f1d00a" opacity="1"></path><path d="M126.55 39.5v0c-2.333 0-4.433-0.293-6.3-0.88-1.867-0.58-3.65-1.603-5.35-3.07v0c-0.433-0.367-0.767-0.783-1-1.25-0.233-0.467-0.35-0.933-0.35-1.4v0c0-0.767 0.277-1.443 0.83-2.03 0.547-0.58 1.237-0.87 2.07-0.87v0c0.633 0 1.2 0.2 1.7 0.6v0c1.267 1.033 2.527 1.817 3.78 2.35 1.247 0.533 2.787 0.8 4.62 0.8v0c1.233 0 2.367-0.193 3.4-0.58 1.033-0.38 1.867-0.897 2.5-1.55 0.633-0.647 0.95-1.387 0.95-2.22v0c0-1-0.3-1.85-0.9-2.55-0.6-0.7-1.517-1.293-2.75-1.78-1.233-0.48-2.8-0.853-4.7-1.12v0c-1.8-0.267-3.383-0.677-4.75-1.23-1.367-0.547-2.507-1.247-3.42-2.1-0.92-0.847-1.613-1.847-2.08-3-0.467-1.147-0.7-2.437-0.7-3.87v0c0-2.167 0.56-4.017 1.68-5.55 1.113-1.533 2.62-2.7 4.52-3.5 1.9-0.8 4-1.2 6.3-1.2v0c2.167 0 4.177 0.327 6.03 0.98 1.847 0.647 3.353 1.47 4.52 2.47v0c0.967 0.767 1.45 1.65 1.45 2.65v0c0 0.733-0.283 1.4-0.85 2-0.567 0.6-1.233 0.9-2 0.9v0c-0.5 0-0.95-0.15-1.35-0.45v0c-0.533-0.467-1.25-0.91-2.15-1.33-0.9-0.413-1.85-0.763-2.85-1.05-1-0.28-1.933-0.42-2.8-0.42v0c-1.433 0-2.64 0.183-3.62 0.55-0.987 0.367-1.73 0.867-2.23 1.5-0.5 0.633-0.75 1.367-0.75 2.2v0c0 1 0.293 1.823 0.88 2.47 0.58 0.653 1.42 1.17 2.52 1.55 1.1 0.387 2.417 0.73 3.95 1.03v0c2 0.367 3.76 0.8 5.28 1.3 1.513 0.5 2.77 1.14 3.77 1.92 1 0.787 1.75 1.77 2.25 2.95 0.5 1.187 0.75 2.63 0.75 4.33v0c0 2.167-0.6 4.033-1.8 5.6-1.2 1.567-2.773 2.767-4.72 3.6-1.953 0.833-4.063 1.25-6.33 1.25zM156.55 12.15l1.45-0.3-10.8 25.4c-0.233 0.633-0.59 1.123-1.07 1.47-0.487 0.353-1.013 0.53-1.58 0.53v0c-0.9 0-1.567-0.25-2-0.75-0.433-0.5-0.65-1.117-0.65-1.85v0c0-0.3 0.05-0.617 0.15-0.95v0l12.45-29.9c0.267-0.667 0.677-1.183 1.23-1.55 0.547-0.367 1.137-0.517 1.77-0.45v0c0.6 0 1.16 0.173 1.68 0.52 0.513 0.353 0.887 0.847 1.12 1.48v0l12.3 29.3c0.167 0.433 0.25 0.833 0.25 1.2v0c0 0.9-0.29 1.617-0.87 2.15-0.587 0.533-1.23 0.8-1.93 0.8v0c-0.6 0-1.14-0.183-1.62-0.55-0.487-0.367-0.863-0.867-1.13-1.5v0zM165.95 31.15h-17.2l2.75-5.75h13.5zM203.65 4v0c0.8 0 1.45 0.267 1.95 0.8 0.5 0.533 0.75 1.2 0.75 2v0 29.15c0 0.867-0.29 1.59-0.87 2.17-0.587 0.587-1.313 0.88-2.18 0.88v0c-0.433 0-0.873-0.077-1.32-0.23-0.453-0.147-0.797-0.353-1.03-0.62v0l-19.65-24.95 1.3-0.8v23.8c0 0.8-0.257 1.467-0.77 2-0.52 0.533-1.197 0.8-2.03 0.8v0c-0.8 0-1.45-0.267-1.95-0.8-0.5-0.533-0.75-1.2-0.75-2v0-29.15c0-0.867 0.293-1.593 0.88-2.18 0.58-0.58 1.303-0.87 2.17-0.87v0c0.467 0 0.95 0.09 1.45 0.27 0.5 0.187 0.867 0.463 1.1 0.83v0l19.05 24.3-0.85 0.6v-23.2c0-0.8 0.25-1.467 0.75-2 0.5-0.533 1.167-0.8 2-0.8zM238.35 5.7v0c0.867 0.433 1.377 1.117 1.53 2.05 0.147 0.933-0.097 1.783-0.73 2.55v0c-0.433 0.6-0.99 0.933-1.67 1-0.687 0.067-1.38-0.067-2.08-0.4v0c-0.8-0.367-1.64-0.65-2.52-0.85-0.887-0.2-1.813-0.3-2.78-0.3v0c-1.8 0-3.407 0.283-4.82 0.85-1.42 0.567-2.63 1.373-3.63 2.42-1 1.053-1.757 2.297-2.27 3.73-0.52 1.433-0.78 3.017-0.78 4.75v0c0 2.033 0.293 3.8 0.88 5.3 0.58 1.5 1.387 2.75 2.42 3.75 1.033 1 2.25 1.74 3.65 2.22 1.4 0.487 2.917 0.73 4.55 0.73v0c0.9 0 1.8-0.083 2.7-0.25 0.9-0.167 1.767-0.467 2.6-0.9v0c0.7-0.333 1.393-0.45 2.08-0.35 0.68 0.1 1.253 0.45 1.72 1.05v0c0.667 0.833 0.91 1.69 0.73 2.57-0.187 0.887-0.697 1.53-1.53 1.93v0c-0.867 0.433-1.757 0.79-2.67 1.07-0.92 0.287-1.847 0.507-2.78 0.66-0.933 0.147-1.883 0.22-2.85 0.22v0c-2.4 0-4.673-0.383-6.82-1.15-2.153-0.767-4.07-1.9-5.75-3.4-1.687-1.5-3.013-3.377-3.98-5.63-0.967-2.247-1.45-4.853-1.45-7.82v0c0-2.567 0.443-4.933 1.33-7.1 0.88-2.167 2.13-4.043 3.75-5.63 1.613-1.58 3.52-2.813 5.72-3.7 2.2-0.88 4.6-1.32 7.2-1.32v0c1.467 0 2.9 0.167 4.3 0.5 1.4 0.333 2.717 0.817 3.95 1.45zM248.4 4v0c0.8 0 1.507 0.29 2.12 0.87 0.62 0.587 0.93 1.313 0.93 2.18v0 28.9c0 0.867-0.317 1.59-0.95 2.17-0.633 0.587-1.367 0.88-2.2 0.88v0c-0.933 0-1.683-0.293-2.25-0.88-0.567-0.58-0.85-1.303-0.85-2.17v0-28.9c0-0.867 0.3-1.593 0.9-2.18 0.6-0.58 1.367-0.87 2.3-0.87zM270.55 4v0c0.933 0 1.683 0.29 2.25 0.87 0.567 0.587 0.85 1.313 0.85 2.18v0 28.9c0 0.867-0.29 1.59-0.87 2.17-0.587 0.587-1.363 0.88-2.33 0.88v0c-0.8 0-1.507-0.293-2.12-0.88-0.62-0.58-0.93-1.303-0.93-2.17v0-28.9c0-0.867 0.317-1.593 0.95-2.18 0.633-0.58 1.367-0.87 2.2-0.87zM248.25 24.3v-5.75h22.3v5.75zM284.2 4v0h16.75c0.867 0 1.593 0.273 2.18 0.82 0.58 0.553 0.87 1.263 0.87 2.13v0c0 0.833-0.29 1.507-0.87 2.02-0.587 0.52-1.313 0.78-2.18 0.78v0h-14l0.45-0.85v9.75l-0.4-0.4h11.7c0.867 0 1.593 0.273 2.18 0.82 0.58 0.553 0.87 1.263 0.87 2.13v0c0 0.833-0.29 1.507-0.87 2.02-0.587 0.52-1.313 0.78-2.18 0.78v0h-11.55l0.25-0.4v10.1l-0.4-0.45h13.95c0.867 0 1.593 0.29 2.18 0.87 0.58 0.587 0.87 1.263 0.87 2.03v0c0 0.833-0.29 1.517-0.87 2.05-0.587 0.533-1.313 0.8-2.18 0.8v0h-16.75c-0.867 0-1.59-0.293-2.17-0.88-0.587-0.58-0.88-1.303-0.88-2.17v0-28.9c0-0.867 0.293-1.593 0.88-2.18 0.58-0.58 1.303-0.87 2.17-0.87zM312.95 4h20.45c0.733 0 1.46 0.267 2.18 0.8 0.713 0.533 1.07 1.25 1.07 2.15v0c0 0.633-0.233 1.267-0.7 1.9v0l-19.15 24.6-0.6-0.2h16.7c0.867 0 1.593 0.257 2.18 0.77 0.58 0.52 0.87 1.213 0.87 2.08v0c0 0.833-0.29 1.523-0.87 2.07-0.587 0.553-1.313 0.83-2.18 0.83v0h-21.95c-0.867 0-1.617-0.31-2.25-0.93-0.633-0.613-0.95-1.287-0.95-2.02v0c0-0.633 0.233-1.267 0.7-1.9v0l19.2-24.7 0.45 0.3h-15.15c-0.867 0-1.59-0.267-2.17-0.8-0.587-0.533-0.88-1.233-0.88-2.1v0c0-0.867 0.293-1.56 0.88-2.08 0.58-0.513 1.303-0.77 2.17-0.77z" data-fill-palette-color="primary" fill="#f1d00a" opacity="1"></path></g></svg></g></svg></g><g transform="matrix(1,0,0,1,0,122.59813711273698)"><svg viewBox="0 0 316.2086020523077 24.742457124593717" height="24.742457124593717" width="316.2086020523077"><g transform="matrix(1,0,0,1,0,0)"><svg width="316.2086020523077" viewBox="4.4 -35 575.0600000000001 45" height="24.742457124593717" data-palette-color="#aaaaaa"><path d="M4.4 0L4.4-35 26.8-35 26.8-28.7 11-28.7 11-20.7 26.5-20.7 26.5-14.4 11-14.4 11 0 4.4 0ZM51.3-11.8L51.3-24.8 57.6-24.8 57.6 0 51.3 0 51.3-3.6 50.4-3.6Q48.75 0.7 43.3 0.7L43.3 0.7Q41.45 0.7 39.85 0.1 38.25-0.5 37.05-1.75 35.85-3 35.17-4.88 34.5-6.75 34.5-9.3L34.5-9.3 34.5-24.8 40.8-24.8 40.8-10.6Q40.8-7.95 42.05-6.48 43.3-5 45.8-5L45.8-5Q48.65-5 49.97-6.83 51.3-8.65 51.3-11.8L51.3-11.8ZM64.95 0L64.95-6 73.65-6 73.65-29 65.25-29 65.25-35 79.95-35 79.95-6 88.05-6 88.05 0 64.95 0ZM95.54 0L95.54-6 104.24-6 104.24-29 95.84-29 95.84-35 110.54-35 110.54-6 118.64-6 118.64 0 95.54 0ZM134.19-17.8L134.19-17.8Q134.19-16.6 135.44-16.07 136.69-15.55 139.99-15.2L139.99-15.2Q143.79-14.8 146.19-12.93 148.59-11.05 148.59-7.7L148.59-7.7 148.59-7.4Q148.59-3.7 145.89-1.5 143.19 0.7 138.29 0.7L138.29 0.7Q135.39 0.7 133.34-0.05 131.29-0.8 129.94-1.93 128.59-3.05 127.87-4.42 127.14-5.8 126.89-7.1L126.89-7.1 132.69-9Q133.09-7.4 134.37-6.2 135.64-5 138.29-5L138.29-5Q140.64-5 141.52-5.73 142.39-6.45 142.39-7.3L142.39-7.3Q142.39-7.8 142.17-8.22 141.94-8.65 141.34-9.03 140.74-9.4 139.72-9.65 138.69-9.9 137.14-10.05L137.14-10.05Q132.94-10.4 130.47-12.23 127.99-14.05 127.99-17.6L127.99-17.6 127.99-17.9Q127.99-19.75 128.79-21.15 129.59-22.55 130.89-23.53 132.19-24.5 133.89-25 135.59-25.5 137.39-25.5L137.39-25.5Q139.74-25.5 141.47-24.93 143.19-24.35 144.39-23.43 145.59-22.5 146.34-21.38 147.09-20.25 147.49-19.2L147.49-19.2 141.79-16.9Q141.34-18.25 140.24-19.03 139.14-19.8 137.39-19.8L137.39-19.8Q135.79-19.8 134.99-19.23 134.19-18.65 134.19-17.8ZM156.19-18.8L156.19-24.8 163.54-24.8 163.54-35 169.84-35 169.84-24.8 178.79-24.8 178.79-18.8 169.84-18.8 169.84-7.5Q169.84-6 171.19-6L171.19-6 177.89-6 177.89 0 167.39 0Q165.69 0 164.61-1.1 163.54-2.2 163.54-3.9L163.54-3.9 163.54-18.8 156.19-18.8ZM204.44-3.6L203.54-3.6Q202.53-1.25 200.74-0.28 198.94 0.7 196.53 0.7L196.53 0.7Q194.28 0.7 192.31-0.15 190.34-1 188.84-2.65 187.34-4.3 186.46-6.65 185.59-9 185.59-12L185.59-12 185.59-12.8Q185.59-15.75 186.44-18.1 187.28-20.45 188.74-22.1 190.19-23.75 192.11-24.63 194.03-25.5 196.24-25.5L196.24-25.5Q198.89-25.5 200.51-24.6 202.14-23.7 203.09-21.8L203.09-21.8 203.99-21.8 203.99-24.8 210.29-24.8 210.29-7.5Q210.29-6 211.64-6L211.64-6 212.59-6 212.59 0 208.29 0Q206.59 0 205.51-1 204.44-2 204.44-3.6L204.44-3.6ZM197.94-5.3L197.94-5.3Q200.69-5.3 202.34-7.13 203.99-8.95 203.99-12.1L203.99-12.1 203.99-12.7Q203.99-15.85 202.34-17.68 200.69-19.5 197.94-19.5L197.94-19.5Q195.19-19.5 193.53-17.68 191.89-15.85 191.89-12.7L191.89-12.7 191.89-12.1Q191.89-8.95 193.53-7.13 195.19-5.3 197.94-5.3ZM236.08-10.65L242.28-9.1Q241.43-4.7 238.26-2 235.08 0.7 229.78 0.7L229.78 0.7Q227.03 0.7 224.66-0.15 222.28-1 220.53-2.6 218.78-4.2 217.78-6.55 216.78-8.9 216.78-11.9L216.78-11.9 216.78-12.5Q216.78-15.5 217.78-17.9 218.78-20.3 220.56-22 222.33-23.7 224.71-24.6 227.08-25.5 229.78-25.5L229.78-25.5Q234.98-25.5 238.21-22.8 241.43-20.1 242.28-15.7L242.28-15.7 236.08-14.1Q235.78-16.3 234.18-17.9 232.58-19.5 229.68-19.5L229.68-19.5Q228.33-19.5 227.13-19 225.93-18.5 225.03-17.57 224.13-16.65 223.61-15.33 223.08-14 223.08-12.35L223.08-12.35 223.08-12.05Q223.08-10.4 223.61-9.13 224.13-7.85 225.03-7 225.93-6.15 227.13-5.73 228.33-5.3 229.68-5.3L229.68-5.3Q232.58-5.3 234.11-6.75 235.63-8.2 236.08-10.65L236.08-10.65ZM256.98-35L256.98-15.7 258.18-15.7 264.78-24.8 271.68-24.8 271.68-24.5 263.68-13.15 263.68-12.25 272.48-0.3 272.48 0 265.28 0 258.18-9.7 256.98-9.7 256.98 0 250.68 0 250.68-35 256.98-35ZM308.28-28.7L308.28-35 320.98-35Q327.48-35 330.63-31.98 333.78-28.95 333.78-22.6L333.78-22.6 333.78-12.4Q333.78-6.05 330.63-3.03 327.48 0 320.98 0L320.98 0 308.28 0 308.28-6.35 311.58-6.35 311.58-28.7 308.28-28.7ZM318.18-6.3L320.98-6.3Q324.43-6.3 325.8-7.93 327.18-9.55 327.18-13L327.18-13 327.18-22.6Q327.18-25.6 325.8-27.15 324.43-28.7 320.98-28.7L320.98-28.7 318.18-28.7 318.18-6.3ZM364.22-10.35L346.02-10.35Q346.07-9.25 346.55-8.33 347.02-7.4 347.85-6.73 348.67-6.05 349.75-5.68 350.82-5.3 352.02-5.3L352.02-5.3Q354.37-5.3 355.62-6.13 356.87-6.95 357.42-8.1L357.42-8.1 362.82-5.1Q362.37-4.15 361.57-3.13 360.77-2.1 359.5-1.25 358.22-0.4 356.4 0.15 354.57 0.7 352.12 0.7L352.12 0.7Q349.32 0.7 347.02-0.2 344.72-1.1 343.05-2.8 341.37-4.5 340.45-6.95 339.52-9.4 339.52-12.5L339.52-12.5 339.52-12.8Q339.52-15.65 340.5-18 341.47-20.35 343.17-22 344.87-23.65 347.15-24.58 349.42-25.5 352.02-25.5L352.02-25.5Q355.22-25.5 357.52-24.38 359.82-23.25 361.32-21.53 362.82-19.8 363.52-17.73 364.22-15.65 364.22-13.7L364.22-13.7 364.22-10.35ZM351.97-19.8L351.97-19.8Q349.57-19.8 348.07-18.57 346.57-17.35 346.12-15.75L346.12-15.75 357.82-15.75Q357.52-17.5 355.95-18.65 354.37-19.8 351.97-19.8ZM376.42 0L369.32-24.8 376.12-24.8 381.97-3 382.87-3 388.72-24.8 395.52-24.8 388.42 0 376.42 0ZM425.42-10.35L407.22-10.35Q407.27-9.25 407.74-8.33 408.22-7.4 409.04-6.73 409.87-6.05 410.94-5.68 412.02-5.3 413.22-5.3L413.22-5.3Q415.57-5.3 416.82-6.13 418.07-6.95 418.62-8.1L418.62-8.1 424.02-5.1Q423.57-4.15 422.77-3.13 421.97-2.1 420.69-1.25 419.42-0.4 417.59 0.15 415.77 0.7 413.32 0.7L413.32 0.7Q410.52 0.7 408.22-0.2 405.92-1.1 404.24-2.8 402.57-4.5 401.64-6.95 400.72-9.4 400.72-12.5L400.72-12.5 400.72-12.8Q400.72-15.65 401.69-18 402.67-20.35 404.37-22 406.07-23.65 408.34-24.58 410.62-25.5 413.22-25.5L413.22-25.5Q416.42-25.5 418.72-24.38 421.02-23.25 422.52-21.53 424.02-19.8 424.72-17.73 425.42-15.65 425.42-13.7L425.42-13.7 425.42-10.35ZM413.17-19.8L413.17-19.8Q410.77-19.8 409.27-18.57 407.77-17.35 407.32-15.75L407.32-15.75 419.02-15.75Q418.72-17.5 417.14-18.65 415.57-19.8 413.17-19.8ZM432.12 0L432.12-6 440.82-6 440.82-29 432.42-29 432.42-35 447.12-35 447.12-6 455.22-6 455.22 0 432.12 0ZM487.16-12.7L487.16-12.1Q487.16-9 486.11-6.63 485.06-4.25 483.26-2.63 481.46-1 479.14-0.15 476.81 0.7 474.26 0.7L474.26 0.7Q471.71 0.7 469.39-0.15 467.06-1 465.26-2.63 463.46-4.25 462.41-6.63 461.36-9 461.36-12.1L461.36-12.1 461.36-12.7Q461.36-15.75 462.41-18.13 463.46-20.5 465.26-22.15 467.06-23.8 469.39-24.65 471.71-25.5 474.26-25.5L474.26-25.5Q476.81-25.5 479.14-24.65 481.46-23.8 483.26-22.15 485.06-20.5 486.11-18.13 487.16-15.75 487.16-12.7L487.16-12.7ZM474.26-5.3L474.26-5.3Q475.61-5.3 476.81-5.75 478.01-6.2 478.91-7.05 479.81-7.9 480.34-9.13 480.86-10.35 480.86-11.9L480.86-11.9 480.86-12.9Q480.86-14.45 480.34-15.68 479.81-16.9 478.91-17.75 478.01-18.6 476.81-19.05 475.61-19.5 474.26-19.5L474.26-19.5Q472.91-19.5 471.71-19.05 470.51-18.6 469.61-17.75 468.71-16.9 468.19-15.68 467.66-14.45 467.66-12.9L467.66-12.9 467.66-11.9Q467.66-10.35 468.19-9.13 468.71-7.9 469.61-7.05 470.51-6.2 471.71-5.75 472.91-5.3 474.26-5.3ZM498.46-3.6L498.46 10 492.16 10 492.16-24.8 498.46-24.8 498.46-21.2 499.36-21.2Q500.36-23.25 502.26-24.38 504.16-25.5 507.11-25.5L507.11-25.5Q509.31-25.5 511.29-24.65 513.26-23.8 514.74-22.18 516.21-20.55 517.09-18.2 517.96-15.85 517.96-12.85L517.96-12.85 517.96-11.95Q517.96-8.9 517.11-6.55 516.26-4.2 514.81-2.58 513.36-0.95 511.39-0.13 509.41 0.7 507.11 0.7L507.11 0.7Q505.41 0.7 504.16 0.35 502.91 0 501.99-0.6 501.06-1.2 500.44-1.98 499.81-2.75 499.36-3.6L499.36-3.6 498.46-3.6ZM505.06-5.3L505.06-5.3Q508.01-5.3 509.84-7.13 511.66-8.95 511.66-12.1L511.66-12.1 511.66-12.7Q511.66-15.85 509.84-17.68 508.01-19.5 505.06-19.5L505.06-19.5Q502.11-19.5 500.29-17.63 498.46-15.75 498.46-12.7L498.46-12.7 498.46-12.1Q498.46-9.05 500.29-7.18 502.11-5.3 505.06-5.3ZM547.81-10.35L529.61-10.35Q529.66-9.25 530.13-8.33 530.61-7.4 531.43-6.73 532.26-6.05 533.33-5.68 534.41-5.3 535.61-5.3L535.61-5.3Q537.96-5.3 539.21-6.13 540.46-6.95 541.01-8.1L541.01-8.1 546.41-5.1Q545.96-4.15 545.16-3.13 544.36-2.1 543.08-1.25 541.81-0.4 539.98 0.15 538.16 0.7 535.71 0.7L535.71 0.7Q532.91 0.7 530.61-0.2 528.31-1.1 526.63-2.8 524.96-4.5 524.03-6.95 523.11-9.4 523.11-12.5L523.11-12.5 523.11-12.8Q523.11-15.65 524.08-18 525.06-20.35 526.76-22 528.46-23.65 530.73-24.58 533.01-25.5 535.61-25.5L535.61-25.5Q538.81-25.5 541.11-24.38 543.41-23.25 544.91-21.53 546.41-19.8 547.11-17.73 547.81-15.65 547.81-13.7L547.81-13.7 547.81-10.35ZM535.56-19.8L535.56-19.8Q533.16-19.8 531.66-18.57 530.16-17.35 529.71-15.75L529.71-15.75 541.41-15.75Q541.11-17.5 539.53-18.65 537.96-19.8 535.56-19.8ZM553.46-18.8L553.46-24.8 563.96-24.8 563.96-21.2 564.86-21.2Q565.56-23.25 567.23-24.38 568.91-25.5 571.26-25.5L571.26-25.5Q574.96-25.5 577.21-23.18 579.46-20.85 579.46-16.1L579.46-16.1 579.46-15 572.96-14.4 572.96-15.1Q572.96-17.15 571.91-18.38 570.86-19.6 568.76-19.6L568.76-19.6Q566.66-19.6 565.46-18.15 564.26-16.7 564.26-14L564.26-14 564.26-6 569.96-6 569.96 0 552.86 0 552.86-6 557.96-6 557.96-18.8 553.46-18.8Z" opacity="1" transform="matrix(1,0,0,1,0,0)" fill="#aaaaaa" class="undefined-text-1" data-fill-palette-color="secondary" id="text-1"></path></svg></g></svg></g></svg></g></svg></g><g><svg viewBox="0 0 111.99358567979507 203.62470123599104" height="203.62470123599104" width="111.99358567979507"><g><svg xmlns="http://www.w3.org/2000/svg" xmlns:xlink="http://www.w3.org/1999/xlink" version="1.1" x="0" y="0" viewBox="25.7 5.2 49.5 90" enable-background="new 0 0 100 100" xml:space="preserve" height="203.62470123599104" width="111.99358567979507" class="icon-icon-0" data-fill-palette-color="accent" id="icon-0"><g fill="#f1d00a" data-fill-palette-color="accent"><polygon points="25.7,82.7 49.6,95.2 49.6,70.4 25.7,57.9  " fill="#f1d00a" data-fill-palette-color="accent"></polygon><polygon points="51.2,95.2 75.2,82.7 75.2,57.9 51.2,70.4  " fill="#f1d00a" data-fill-palette-color="accent"></polygon><path d="M74.2 56.6l-10.1-5.3-13.4 7c-0.1 0.1-0.2 0.1-0.4 0.1s-0.3 0-0.4-0.1l-13.4-7-10.1 5.3 0 0L50.4 69l0 0 0 0 16.5-8.6L74.2 56.6z" fill="#f1d00a" data-fill-palette-color="accent"></path><polygon points="49.6,56.2 49.6,31.5 25.7,19 25.7,43.7  " fill="#f1d00a" data-fill-palette-color="accent"></polygon><polygon points="51.2,31.5 51.2,56.2 75.2,43.7 75.2,19  " fill="#f1d00a" data-fill-palette-color="accent"></polygon><polygon points="50.4,30.1 50.4,30.1 65.7,22.1 74.2,17.6 50.4,5.2 26.6,17.6 26.6,17.6 50.4,30.1  " fill="#f1d00a" data-fill-palette-color="accent"></polygon></g></svg></g></svg></g></svg></g></svg></g></svg></g></svg><rect width="395.52" height="247.2" fill="none" stroke="none" visibility="hidden"></rect></g></svg></g></svg>